STARTFONT 2.1
FONT -FontForge-Source Serif Pro-Bold-R-Normal--25-240-75-75-P-135-ISO10646-1
SIZE 24 75 75
FONTBOUNDINGBOX 27 25 -3 -6
COMMENT "Generated by fontforge, http://fontforge.sourceforge.net"
COMMENT "(c) 2014 - 2019 Adobe Systems Incorporated (http://www.adobe.com/), with Reserved Font Name `Source'."
STARTPROPERTIES 40
FOUNDRY "FontForge"
FAMILY_NAME "Source Serif Pro"
WEIGHT_NAME "Bold"
SLANT "R"
SETWIDTH_NAME "Normal"
ADD_STYLE_NAME ""
PIXEL_SIZE 25
POINT_SIZE 240
RESOLUTION_X 75
RESOLUTION_Y 75
SPACING "P"
AVERAGE_WIDTH 135
CHARSET_REGISTRY "ISO10646"
CHARSET_ENCODING "1"
FONTNAME_REGISTRY ""
CHARSET_COLLECTIONS "ISO10646-1"
FONT_NAME "SourceSerifPro-Bold"
FACE_NAME "Source Serif Pro Bold"
COPYRIGHT "(c) 2014 - 2019 Adobe Systems Incorporated (http://www.adobe.com/), with Reserved Font Name `Source'."
FONT_VERSION "3.001;hotconv 1.0.111;makeotfexe 2.5.65597"
FONT_ASCENT 20
FONT_DESCENT 5
UNDERLINE_POSITION -2
UNDERLINE_THICKNESS 2
X_HEIGHT 11
CAP_HEIGHT 15
RAW_ASCENT 800
RAW_DESCENT 200
NORM_SPACE 5
RELATIVE_WEIGHT 70
RELATIVE_SETWIDTH 50
SUPERSCRIPT_X 0
SUPERSCRIPT_Y 8
SUPERSCRIPT_SIZE 15
SUBSCRIPT_X 0
SUBSCRIPT_Y 1
SUBSCRIPT_SIZE 15
FIGURE_WIDTH 14
AVG_LOWERCASE_WIDTH 133
AVG_UPPERCASE_WIDTH 165
ENDPROPERTIES
CHARS 95
STARTCHAR space
ENCODING 32
SWIDTH 214 0
DWIDTH 5 0
BBX 1 1 0 0
BITMAP
00
ENDCHAR
STARTCHAR exclam
ENCODING 33
SWIDTH 347 0
DWIDTH 9 0
BBX 5 17 2 0
BITMAP
60
F0
F8
F8
F8
F0
70
70
70
60
20
00
00
70
F8
F8
F0
ENDCHAR
STARTCHAR quotedbl
ENCODING 34
SWIDTH 447 0
DWIDTH 11 0
BBX 9 8 1 10
BITMAP
F380
F780
F780
F780
F380
6380
6300
6300
ENDCHAR
STARTCHAR numbersign
ENCODING 35
SWIDTH 567 0
DWIDTH 14 0
BBX 14 16 0 0
BITMAP
0E30
0C30
0C30
0C30
7FFC
7FFC
7FFC
1860
1860
FFF8
FFF8
FFF8
18C0
18C0
30C0
30C0
ENDCHAR
STARTCHAR dollar
ENCODING 36
SWIDTH 542 0
DWIDTH 14 0
BBX 12 21 1 -3
BITMAP
0600
0600
1F80
3EC0
76E0
E6E0
F640
FE00
7E00
7F80
1FE0
07E0
07F0
06F0
E6F0
F6E0
77E0
3F80
0600
0600
0600
ENDCHAR
STARTCHAR percent
ENCODING 37
SWIDTH 874 0
DWIDTH 22 0
BBX 20 17 1 -1
BITMAP
3C0300
660200
670600
E70C00
E70800
E71800
E73380
672660
666E60
3CCC60
008C70
018C70
030C60
020E60
060660
0C03C0
080000
ENDCHAR
STARTCHAR ampersand
ENCODING 38
SWIDTH 721 0
DWIDTH 18 0
BBX 16 17 1 0
BITMAP
0700
1DC0
38E0
38E0
38E0
3DC0
3D9F
1E1F
1F04
7F8C
E7CC
E3F8
E1F0
E0F8
F0FC
FFFF
7F1F
ENDCHAR
STARTCHAR quotesingle
ENCODING 39
SWIDTH 236 0
DWIDTH 6 0
BBX 4 8 1 10
BITMAP
F0
F0
F0
F0
F0
60
60
60
ENDCHAR
STARTCHAR parenleft
ENCODING 40
SWIDTH 377 0
DWIDTH 9 0
BBX 7 22 2 -4
BITMAP
06
0C
1C
38
70
70
60
E0
E0
E0
E0
E0
E0
E0
E0
60
70
70
38
18
0C
06
ENDCHAR
STARTCHAR parenright
ENCODING 41
SWIDTH 377 0
DWIDTH 9 0
BBX 7 22 1 -4
BITMAP
C0
E0
70
30
38
18
1C
1C
1C
0E
0E
0E
0E
1C
1C
1C
18
38
30
70
E0
C0
ENDCHAR
STARTCHAR asterisk
ENCODING 42
SWIDTH 431 0
DWIDTH 11 0
BBX 10 9 0 9
BITMAP
0E00
0E00
4C40
F5C0
7FC0
0E00
1B00
3B80
3380
ENDCHAR
STARTCHAR plus
ENCODING 43
SWIDTH 544 0
DWIDTH 14 0
BBX 12 12 1 2
BITMAP
0600
0600
0600
0600
0600
FFF0
FFF0
0600
0600
0600
0600
0600
ENDCHAR
STARTCHAR comma
ENCODING 44
SWIDTH 300 0
DWIDTH 8 0
BBX 6 9 0 -5
BITMAP
38
3C
7C
3C
0C
18
38
70
C0
ENDCHAR
STARTCHAR hyphen.dup1
ENCODING 45
SWIDTH 339 0
DWIDTH 8 0
BBX 6 2 1 5
BITMAP
FC
FC
ENDCHAR
STARTCHAR period
ENCODING 46
SWIDTH 300 0
DWIDTH 8 0
BBX 5 4 1 0
BITMAP
70
78
F8
78
ENDCHAR
STARTCHAR slash
ENCODING 47
SWIDTH 387 0
DWIDTH 10 0
BBX 9 22 0 -4
BITMAP
0180
0180
0380
0300
0300
0700
0700
0600
0E00
0E00
0C00
1C00
1C00
1800
1800
3800
3000
3000
7000
7000
6000
E000
ENDCHAR
STARTCHAR zero
ENCODING 48
SWIDTH 542 0
DWIDTH 14 0
BBX 12 16 1 0
BITMAP
1F00
39C0
71C0
70E0
F0E0
F0E0
F0F0
F0F0
F0F0
F0F0
F0F0
F0E0
70E0
71E0
39C0
1F80
ENDCHAR
STARTCHAR one
ENCODING 49
SWIDTH 542 0
DWIDTH 14 0
BBX 10 16 2 0
BITMAP
0E00
FE00
FE00
1E00
1E00
1E00
1E00
1E00
1E00
1E00
1E00
1E00
1E00
1E00
7F80
FFC0
ENDCHAR
STARTCHAR two
ENCODING 50
SWIDTH 542 0
DWIDTH 14 0
BBX 12 16 1 0
BITMAP
1F80
73C0
71E0
F1E0
E1E0
01E0
01E0
03C0
0780
0700
0C00
1800
3000
7FF0
FFF0
FFF0
ENDCHAR
STARTCHAR three
ENCODING 51
SWIDTH 542 0
DWIDTH 14 0
BBX 12 16 1 0
BITMAP
1F80
33C0
71E0
71E0
21E0
01E0
03C0
0F00
0FC0
01E0
01F0
60F0
E0F0
E1E0
73E0
3F80
ENDCHAR
STARTCHAR four
ENCODING 52
SWIDTH 542 0
DWIDTH 14 0
BBX 12 16 1 0
BITMAP
03C0
03C0
07C0
0FC0
0BC0
1BC0
33C0
23C0
63C0
C3C0
FFF0
FFF0
FFF0
03C0
03C0
03C0
ENDCHAR
STARTCHAR five
ENCODING 53
SWIDTH 542 0
DWIDTH 14 0
BBX 12 16 1 0
BITMAP
3FE0
3FE0
3FE0
2000
2000
2000
3F00
3FC0
03E0
01F0
00F0
60F0
E0F0
E1E0
73E0
3F80
ENDCHAR
STARTCHAR six
ENCODING 54
SWIDTH 542 0
DWIDTH 14 0
BBX 12 16 1 0
BITMAP
01E0
0780
1E00
3C00
7800
7800
F780
FFE0
F1E0
F0F0
F0F0
F0F0
F0F0
71E0
79C0
1F80
ENDCHAR
STARTCHAR seven
ENCODING 55
SWIDTH 542 0
DWIDTH 14 0
BBX 12 16 1 0
BITMAP
FFF0
FFF0
FFE0
0060
00E0
00C0
01C0
0180
0380
0700
0700
0F00
0E00
1E00
3C00
3C00
ENDCHAR
STARTCHAR eight
ENCODING 56
SWIDTH 542 0
DWIDTH 14 0
BBX 12 16 1 0
BITMAP
1F80
39C0
70E0
F0E0
F0E0
79C0
7F80
3F80
1FC0
3FE0
71E0
E0F0
E0E0
F0E0
71E0
3F80
ENDCHAR
STARTCHAR nine
ENCODING 57
SWIDTH 542 0
DWIDTH 14 0
BBX 12 17 1 -1
BITMAP
1F80
79C0
F1E0
F0E0
F0F0
F0F0
F0F0
F0F0
7FF0
3FE0
01E0
01C0
03C0
0780
1E00
7800
4000
ENDCHAR
STARTCHAR colon
ENCODING 58
SWIDTH 300 0
DWIDTH 8 0
BBX 5 12 1 0
BITMAP
70
78
F8
78
00
00
00
00
70
78
F8
78
ENDCHAR
STARTCHAR semicolon
ENCODING 59
SWIDTH 300 0
DWIDTH 8 0
BBX 6 17 0 -5
BITMAP
38
3C
7C
3C
00
00
00
00
38
3C
7C
3C
0C
18
38
70
C0
ENDCHAR
STARTCHAR less
ENCODING 60
SWIDTH 544 0
DWIDTH 14 0
BBX 11 12 1 2
BITMAP
0060
01E0
07C0
1F00
7C00
F000
F000
7C00
1F00
07C0
01E0
0060
ENDCHAR
STARTCHAR equal
ENCODING 61
SWIDTH 544 0
DWIDTH 14 0
BBX 12 8 1 4
BITMAP
FFF0
FFF0
0000
0000
0000
FFF0
FFF0
FFF0
ENDCHAR
STARTCHAR greater
ENCODING 62
SWIDTH 544 0
DWIDTH 14 0
BBX 12 12 1 2
BITMAP
6000
F800
3E00
0F80
03E0
00F0
01F0
07C0
1F00
7E00
F800
6000
ENDCHAR
STARTCHAR question
ENCODING 63
SWIDTH 449 0
DWIDTH 11 0
BBX 8 17 2 0
BITMAP
60
F8
FC
7E
03
03
1F
7E
7E
70
60
00
00
70
F8
F8
F0
ENDCHAR
STARTCHAR at
ENCODING 64
SWIDTH 890 0
DWIDTH 22 0
BBX 20 20 1 -4
BITMAP
01FF00
070180
0C00C0
180060
307A30
31FE30
618E30
638E30
C70E30
C71E30
C71C30
C71C60
C7BC60
E7EFC0
63C700
700000
300000
1C0000
0FFC00
03F000
ENDCHAR
STARTCHAR A
ENCODING 65
SWIDTH 675 0
DWIDTH 17 0
BBX 17 16 0 0
BITMAP
01C000
01E000
03E000
03E000
02F000
06F000
04F000
047800
0C7800
087800
0FFC00
183C00
103C00
103E00
783E00
FC7F80
ENDCHAR
STARTCHAR B
ENCODING 66
SWIDTH 651 0
DWIDTH 16 0
BBX 15 16 1 0
BITMAP
FFF0
3C78
3C7C
3C3C
3C3C
3C78
3CF0
3FE0
3C78
3C3C
3C3E
3C3E
3C3E
3C3C
7DF8
FFE0
ENDCHAR
STARTCHAR C
ENCODING 67
SWIDTH 622 0
DWIDTH 16 0
BBX 14 17 1 0
BITMAP
03F0
1FFC
3E1C
7C1C
780C
F800
F000
F000
F000
F000
F000
F000
F80C
780C
3C1C
1E1C
0FF8
ENDCHAR
STARTCHAR D
ENCODING 68
SWIDTH 705 0
DWIDTH 18 0
BBX 16 16 1 0
BITMAP
FFF0
3C78
3C3C
3C1E
3C1E
3C1F
3C1F
3C1F
3C1F
3C1F
3C1E
3C1E
3C3C
3C3C
7DF0
FFC0
ENDCHAR
STARTCHAR E
ENCODING 69
SWIDTH 595 0
DWIDTH 15 0
BBX 13 16 1 0
BITMAP
FFF8
3C38
3C38
3C18
3C00
3C40
3C40
3FC0
3C40
3C40
3C00
3C00
3C18
3C18
7C18
FFF8
ENDCHAR
STARTCHAR F
ENCODING 70
SWIDTH 580 0
DWIDTH 15 0
BBX 13 16 1 0
BITMAP
FFF8
3C38
3C18
3C18
3C00
3C40
3C40
3FC0
3C40
3C40
3C00
3C00
3C00
3C00
7E00
FF00
ENDCHAR
STARTCHAR G
ENCODING 71
SWIDTH 675 0
DWIDTH 17 0
BBX 16 17 1 0
BITMAP
03F0
1FFC
3E1C
7C1C
780C
F800
F000
F000
F000
F0FF
F03C
F83C
F83C
783C
3C3C
1E3C
0FF8
ENDCHAR
STARTCHAR H
ENCODING 72
SWIDTH 765 0
DWIDTH 19 0
BBX 17 16 1 0
BITMAP
FF7F80
3C1E00
3C1E00
3C1E00
3C1E00
3C1E00
3C1E00
3FFE00
3C1E00
3C1E00
3C1E00
3C1E00
3C1E00
3C1E00
7C1F00
FF7F80
ENDCHAR
STARTCHAR I
ENCODING 73
SWIDTH 388 0
DWIDTH 10 0
BBX 8 16 1 0
BITMAP
FF
3C
3C
3C
3C
3C
3C
3C
3C
3C
3C
3C
3C
3C
7C
FF
ENDCHAR
STARTCHAR J
ENCODING 74
SWIDTH 395 0
DWIDTH 10 0
BBX 11 20 -2 -4
BITMAP
1FE0
0780
0780
0780
0780
0780
0780
0780
0780
0780
0780
0780
0780
0780
0780
0780
0700
E700
F600
FC00
ENDCHAR
STARTCHAR K
ENCODING 75
SWIDTH 696 0
DWIDTH 17 0
BBX 16 16 1 0
BITMAP
FF3F
3C18
3C30
3C60
3C40
3CC0
3DE0
3FE0
3FF0
3CF0
3CF8
3C78
3C7C
3C3C
7C3E
FE7F
ENDCHAR
STARTCHAR L
ENCODING 76
SWIDTH 580 0
DWIDTH 15 0
BBX 13 16 1 0
BITMAP
FF00
3C00
3C00
3C00
3C00
3C00
3C00
3C00
3C00
3C00
3C00
3C18
3C18
3C18
7C38
FFF8
ENDCHAR
STARTCHAR M
ENCODING 77
SWIDTH 896 0
DWIDTH 22 0
BBX 22 16 0 0
BITMAP
7F01FC
1F03F0
1F03F0
1F82F0
1787F0
1787F0
13C5F0
13CDF0
1BEDF0
19E9F0
19F9F0
19F9F0
18F1F0
18F1F0
3C71F0
FE63FC
ENDCHAR
STARTCHAR N
ENCODING 78
SWIDTH 728 0
DWIDTH 18 0
BBX 16 16 1 0
BITMAP
FC3F
3E04
3F04
3F04
2F84
27C4
27C4
23E4
21F4
20FC
20FC
207C
203C
203C
781C
FC0C
ENDCHAR
STARTCHAR O
ENCODING 79
SWIDTH 702 0
DWIDTH 18 0
BBX 16 17 1 0
BITMAP
07C0
1FF0
3C3C
783C
781E
F81E
F01E
F01F
F01F
F01F
F01F
F01E
F81E
781E
383C
3C78
0FF0
ENDCHAR
STARTCHAR P
ENCODING 80
SWIDTH 613 0
DWIDTH 15 0
BBX 14 16 1 0
BITMAP
FFF0
3C78
3C38
3C3C
3C3C
3C3C
3C3C
3C78
3FF0
3F80
3C00
3C00
3C00
3C00
7E00
FF00
ENDCHAR
STARTCHAR Q
ENCODING 81
SWIDTH 702 0
DWIDTH 18 0
BBX 16 22 1 -5
BITMAP
07C0
1FF0
3C3C
783C
781E
F81E
F01E
F01F
F01F
F01F
F01F
F01E
F81E
781E
383C
3C78
0FF0
03C0
03C0
03C0
01FC
00FE
ENDCHAR
STARTCHAR R
ENCODING 82
SWIDTH 683 0
DWIDTH 17 0
BBX 16 16 1 0
BITMAP
FFF0
3C78
3C3C
3C3C
3C3C
3C3C
3C78
3FC0
3DF0
3C78
3C78
3C7C
3C7C
3C3C
7C3E
FF3F
ENDCHAR
STARTCHAR S
ENCODING 83
SWIDTH 541 0
DWIDTH 14 0
BBX 12 17 1 0
BITMAP
0F80
3FE0
70E0
F0E0
F060
F000
FC00
7F00
3FC0
1FE0
07E0
01F0
C0F0
C0F0
E0E0
E1E0
FF80
ENDCHAR
STARTCHAR T
ENCODING 84
SWIDTH 634 0
DWIDTH 16 0
BBX 15 16 0 0
BITMAP
7FFE
63C6
63C6
63C6
83C0
03C0
03C0
03C0
03C0
03C0
03C0
03C0
03C0
03C0
07E0
0FF0
ENDCHAR
STARTCHAR U
ENCODING 85
SWIDTH 731 0
DWIDTH 18 0
BBX 17 16 1 0
BITMAP
FF1F80
3C0600
3C0600
3C0600
3C0600
3C0600
3C0600
3C0600
3C0600
3C0600
3C0400
3C0400
3C0C00
3E1C00
1FF800
0FF000
ENDCHAR
STARTCHAR V
ENCODING 86
SWIDTH 661 0
DWIDTH 17 0
BBX 16 16 0 0
BITMAP
FF1F
3C06
3E04
1E0C
1E08
1F08
0F18
0F10
0F90
07B0
07A0
07E0
03E0
03C0
03C0
01C0
ENDCHAR
STARTCHAR W
ENCODING 87
SWIDTH 981 0
DWIDTH 25 0
BBX 24 16 0 0
BITMAP
FF3F9F
3C0E04
3C1F04
3E1F0C
1E1F0C
1E3F08
1E3798
0F2798
0F6790
0F63D0
07C3F0
07C3E0
07C1E0
0781E0
0381E0
0381C0
ENDCHAR
STARTCHAR X
ENCODING 88
SWIDTH 654 0
DWIDTH 16 0
BBX 16 16 0 0
BITMAP
FF3E
3E18
1E18
1F30
0FA0
07E0
07C0
03C0
03E0
07E0
05F0
0CF8
1878
187C
307E
FCFF
ENDCHAR
STARTCHAR Y
ENCODING 89
SWIDTH 624 0
DWIDTH 16 0
BBX 16 16 0 0
BITMAP
FF3F
3E0C
3E18
1E18
1F10
0F30
0FA0
07E0
07C0
03C0
03C0
03C0
03C0
03C0
07E0
0FF0
ENDCHAR
STARTCHAR Z
ENCODING 90
SWIDTH 563 0
DWIDTH 14 0
BBX 14 16 0 0
BITMAP
7FF8
60F8
60F0
61F0
03E0
03E0
07C0
0780
0F80
0F00
1F00
3E0C
3E1C
7C1C
7818
FFF8
ENDCHAR
STARTCHAR bracketleft
ENCODING 91
SWIDTH 348 0
DWIDTH 9 0
BBX 6 22 2 -4
BITMAP
FC
7C
70
70
70
70
70
70
70
70
70
70
70
70
70
70
70
70
70
70
78
FC
ENDCHAR
STARTCHAR backslash
ENCODING 92
SWIDTH 387 0
DWIDTH 10 0
BBX 9 22 0 -4
BITMAP
E000
6000
6000
7000
3000
3000
3800
3800
1800
1C00
1C00
0C00
0E00
0E00
0600
0600
0700
0700
0300
0380
0380
0180
ENDCHAR
STARTCHAR bracketright
ENCODING 93
SWIDTH 348 0
DWIDTH 9 0
BBX 6 22 0 -4
BITMAP
FC
7C
1C
1C
1C
1C
1C
1C
1C
1C
1C
1C
1C
1C
1C
1C
1C
1C
1C
1C
3C
FC
ENDCHAR
STARTCHAR asciicircum
ENCODING 94
SWIDTH 544 0
DWIDTH 14 0
BBX 11 8 1 5
BITMAP
0600
0F00
1F00
1B80
39C0
70C0
60E0
E060
ENDCHAR
STARTCHAR underscore
ENCODING 95
SWIDTH 539 0
DWIDTH 13 0
BBX 11 2 1 -2
BITMAP
FFE0
FFE0
ENDCHAR
STARTCHAR grave
ENCODING 96
SWIDTH 400 0
DWIDTH 10 0
BBX 5 5 2 14
BITMAP
E0
E0
70
38
18
ENDCHAR
STARTCHAR a
ENCODING 97
SWIDTH 531 0
DWIDTH 13 0
BBX 12 12 1 0
BITMAP
3F80
73C0
F3C0
E3C0
03C0
1FC0
73C0
F3C0
E3C0
F3C0
FFF0
7DF0
ENDCHAR
STARTCHAR b
ENCODING 98
SWIDTH 610 0
DWIDTH 15 0
BBX 14 18 1 0
BITMAP
3800
F800
7800
7800
7800
7800
7BE0
7FF0
78F8
7878
7878
787C
787C
7878
7878
78F8
7FF0
FFE0
ENDCHAR
STARTCHAR c
ENCODING 99
SWIDTH 513 0
DWIDTH 13 0
BBX 11 12 1 0
BITMAP
1FC0
79E0
70E0
F0E0
F000
F000
F000
F000
F800
7C60
7FC0
1F80
ENDCHAR
STARTCHAR d
ENCODING 100
SWIDTH 594 0
DWIDTH 15 0
BBX 13 18 1 0
BITMAP
0070
03F0
00F0
00F0
00F0
00F0
3FF0
7FF0
78F0
F0F0
F0F0
F0F0
F0F0
F0F0
F0F0
F8F0
7FF0
3EF8
ENDCHAR
STARTCHAR e
ENCODING 101
SWIDTH 521 0
DWIDTH 13 0
BBX 11 12 1 0
BITMAP
1F80
79C0
70E0
F0E0
F1E0
FFE0
F000
F000
F800
7C60
7FC0
1F80
ENDCHAR
STARTCHAR f
ENCODING 102
SWIDTH 362 0
DWIDTH 9 0
BBX 10 18 1 0
BITMAP
0FC0
1DC0
39C0
3800
7800
7800
FF00
FF00
7800
7800
7800
7800
7800
7800
7800
7800
7C00
FE00
ENDCHAR
STARTCHAR g
ENCODING 103
SWIDTH 543 0
DWIDTH 14 0
BBX 13 19 0 -6
BITMAP
0008
3FD8
79F8
78E0
70E0
78E0
79E0
3FC0
3200
3000
7F80
7FF0
7FF8
3FF8
6038
E038
E070
7FE0
0F00
ENDCHAR
STARTCHAR h
ENCODING 104
SWIDTH 617 0
DWIDTH 15 0
BBX 14 18 1 0
BITMAP
3800
F800
7800
7800
7800
7800
7BF0
7FF0
7CF8
7878
7878
7878
7878
7878
7878
7878
7878
FDFC
ENDCHAR
STARTCHAR i
ENCODING 105
SWIDTH 316 0
DWIDTH 8 0
BBX 7 18 0 0
BITMAP
3C
3C
3C
18
00
00
1C
FC
3C
3C
3C
3C
3C
3C
3C
3C
3C
7E
ENDCHAR
STARTCHAR j
ENCODING 106
SWIDTH 307 0
DWIDTH 8 0
BBX 9 24 -3 -6
BITMAP
0780
0780
0780
0300
0000
0000
0380
1F80
0780
0780
0780
0780
0780
0780
0780
0780
0780
0780
0780
0780
2780
F700
FE00
7800
ENDCHAR
STARTCHAR k
ENCODING 107
SWIDTH 598 0
DWIDTH 15 0
BBX 14 18 1 0
BITMAP
3800
F800
7800
7800
7800
7800
79F8
7860
78C0
7980
7B80
7FC0
7FC0
79E0
79E0
78F0
78F8
FC7C
ENDCHAR
STARTCHAR l
ENCODING 108
SWIDTH 323 0
DWIDTH 8 0
BBX 7 18 1 0
BITMAP
38
F8
78
78
78
78
78
78
78
78
78
78
78
78
78
78
78
FE
ENDCHAR
STARTCHAR m
ENCODING 109
SWIDTH 907 0
DWIDTH 23 0
BBX 22 12 0 0
BITMAP
1DF3F0
FFFFF8
3E7C78
3C3878
3C3C78
3C3C78
3C3C78
3C3C78
3C3C78
3C3C78
3C3C78
7EFEFC
ENDCHAR
STARTCHAR n
ENCODING 110
SWIDTH 616 0
DWIDTH 15 0
BBX 15 12 0 0
BITMAP
1DF0
FFF8
3E78
3C3C
3C3C
3C3C
3C3C
3C3C
3C3C
3C3C
3C3C
7EFE
ENDCHAR
STARTCHAR o
ENCODING 111
SWIDTH 565 0
DWIDTH 14 0
BBX 12 12 1 0
BITMAP
1FC0
79E0
70F0
F0F0
F0F0
F0F0
F0F0
F0F0
F0F0
70F0
79E0
1FC0
ENDCHAR
STARTCHAR p
ENCODING 112
SWIDTH 611 0
DWIDTH 15 0
BBX 14 18 1 -6
BITMAP
3BE0
FFF0
78F8
7878
7878
787C
787C
7878
7878
78F8
7FF0
7BE0
7800
7800
7800
7800
FE00
FE00
ENDCHAR
STARTCHAR q
ENCODING 113
SWIDTH 583 0
DWIDTH 15 0
BBX 13 18 1 -6
BITMAP
3F30
7FF0
78F0
F0F0
F0F0
F0F0
F0F0
F0F0
F0F0
F8F0
7FF0
3EF0
00F0
00F0
00F0
00F0
01F8
01F8
ENDCHAR
STARTCHAR r
ENCODING 114
SWIDTH 465 0
DWIDTH 12 0
BBX 12 12 0 0
BITMAP
1DE0
FDF0
3EE0
3E00
3C00
3C00
3C00
3C00
3C00
3C00
3E00
7F00
ENDCHAR
STARTCHAR s
ENCODING 115
SWIDTH 455 0
DWIDTH 11 0
BBX 10 12 1 0
BITMAP
7F80
6380
E180
F000
FE00
FF80
7F80
1FC0
C3C0
C3C0
C380
FF00
ENDCHAR
STARTCHAR t
ENCODING 116
SWIDTH 358 0
DWIDTH 9 0
BBX 9 16 0 0
BITMAP
1C00
1C00
1C00
3C00
FF80
FF80
3C00
3C00
3C00
3C00
3C00
3C00
3C00
3C00
3F80
1F00
ENDCHAR
STARTCHAR u
ENCODING 117
SWIDTH 607 0
DWIDTH 15 0
BBX 15 12 0 0
BITMAP
FCF8
7CF8
3C78
3C78
3C78
3C78
3C78
3C78
3C78
3CF8
3FF8
1F7E
ENDCHAR
STARTCHAR v
ENCODING 118
SWIDTH 527 0
DWIDTH 13 0
BBX 13 12 0 0
BITMAP
FEF8
7830
3C60
3C60
3E40
1EC0
1EC0
0F80
0F80
0F00
0700
0700
ENDCHAR
STARTCHAR w
ENCODING 119
SWIDTH 789 0
DWIDTH 20 0
BBX 20 12 0 0
BITMAP
FCFDF0
7870C0
7878C0
3CF880
3CB980
3CBD80
1FBD00
1F1F00
0F1F00
0F0E00
0E0E00
060E00
ENDCHAR
STARTCHAR x
ENCODING 120
SWIDTH 552 0
DWIDTH 14 0
BBX 14 12 0 0
BITMAP
FE78
3C30
1E60
1FC0
0F80
0F80
07C0
0FC0
1BE0
11E0
31F0
FBFC
ENDCHAR
STARTCHAR y
ENCODING 121
SWIDTH 534 0
DWIDTH 13 0
BBX 13 18 0 -6
BITMAP
FE78
7830
3C20
3C60
1E60
1E40
1EC0
0F80
0F80
0780
0700
0700
0300
0200
2600
F400
F800
7000
ENDCHAR
STARTCHAR z
ENCODING 122
SWIDTH 464 0
DWIDTH 12 0
BBX 11 12 0 0
BITMAP
7FE0
63E0
63C0
6780
0780
0F00
1F00
1E00
3C60
7C60
7860
FFE0
ENDCHAR
STARTCHAR braceleft
ENCODING 123
SWIDTH 337 0
DWIDTH 8 0
BBX 7 22 1 -4
BITMAP
1E
3C
70
70
70
38
38
18
18
38
F0
F0
30
18
18
38
38
70
70
70
3C
1E
ENDCHAR
STARTCHAR bar
ENCODING 124
SWIDTH 272 0
DWIDTH 7 0
BBX 3 25 2 -6
BITMAP
E0
E0
E0
E0
E0
E0
E0
E0
E0
E0
E0
E0
E0
E0
E0
E0
E0
E0
E0
E0
E0
E0
E0
E0
E0
ENDCHAR
STARTCHAR braceright
ENCODING 125
SWIDTH 337 0
DWIDTH 8 0
BBX 6 22 1 -4
BITMAP
E0
F8
38
38
38
38
30
70
30
30
1C
1C
30
30
70
30
38
38
38
38
78
E0
ENDCHAR
STARTCHAR asciitilde
ENCODING 126
SWIDTH 544 0
DWIDTH 14 0
BBX 12 5 1 6
BITMAP
7830
7C70
EF60
C7E0
4180
ENDCHAR
ENDFONT
